<svg width="16" height="15" viewBox="0 0 16 15" fill="none" xmlns="http://www.w3.org/2000/svg">
<path d="M8.856 6.92008H8.8672V6.90285L8.856 6.92008ZM8.856 6.92008H8.8672V6.90285L8.856 6.92008ZM8.856 6.92008H8.8672V6.90285L8.856 6.92008ZM8.856 6.92008H8.8672V6.90285L8.856 6.92008ZM8.856 6.92008H8.8672V6.90285L8.856 6.92008ZM8.856 6.92008H8.8672V6.90285L8.856 6.92008ZM8.856 6.92008H8.8672V6.90285L8.856 6.92008ZM8.856 6.92008H8.8672V6.90285L8.856 6.92008ZM8.856 6.92008H8.8672V6.90285L8.856 6.92008ZM8.856 6.92008H8.8672V6.90285L8.856 6.92008ZM8.856 6.92008H8.8672V6.90285L8.856 6.92008ZM8.856 6.92008H8.8672V6.90285L8.856 6.92008ZM8.856 6.92008H8.8672V6.90285L8.856 6.92008ZM8.856 6.92008H8.8672V6.90285L8.856 6.92008ZM8.856 6.92008H8.8672V6.90285L8.856 6.92008ZM8.856 6.92008H8.8672V6.90285L8.856 6.92008ZM8.128 0.590643C6.68278 0.590643 5.27 1.01028 4.06834 1.79649C2.86668 2.5827 1.93009 3.70018 1.37703 5.0076C0.823963 6.31502 0.679256 7.75367 0.961206 9.14162C1.24316 10.5296 1.9391 11.8045 2.96103 12.8051C3.98296 13.8058 5.28498 14.4873 6.70244 14.7633C8.1199 15.0394 9.58913 14.8977 10.9244 14.3562C12.2596 13.8146 13.4008 12.8975 14.2037 11.7209C15.0066 10.5442 15.4352 9.16087 15.4352 7.74573C15.4331 5.84872 14.6625 4.03 13.2926 2.68861C11.9227 1.34722 10.0653 0.592717 8.128 0.590643ZM6.3008 10.9669C6.30038 10.9986 6.28722 11.0289 6.26416 11.0511C6.2411 11.0734 6.21 11.0859 6.1776 11.0859H4.7696C4.73735 11.0859 4.70642 11.0734 4.68362 11.051C4.66081 11.0287 4.648 10.9984 4.648 10.9669V6.33414C4.64779 6.31837 4.65078 6.30272 4.6568 6.28809C4.66281 6.27347 4.67173 6.26015 4.68305 6.24893C4.69436 6.23771 4.70784 6.2288 4.7227 6.22272C4.73755 6.21663 4.7535 6.2135 4.7696 6.2135H6.1776C6.19378 6.2135 6.2098 6.21662 6.22475 6.22269C6.2397 6.22875 6.25328 6.23764 6.26472 6.24884C6.27616 6.26004 6.28523 6.27334 6.29143 6.28797C6.29762 6.30261 6.3008 6.3183 6.3008 6.33414V10.9669ZM5.424 5.59466C5.24901 5.59466 5.07794 5.54385 4.93243 5.44865C4.78693 5.35345 4.67352 5.21814 4.60655 5.05983C4.53959 4.90152 4.52206 4.72732 4.5562 4.55926C4.59034 4.3912 4.67461 4.23682 4.79835 4.11566C4.9221 3.99449 5.07975 3.91198 5.25139 3.87855C5.42302 3.84512 5.60093 3.86227 5.7626 3.92785C5.92428 3.99342 6.06246 4.10447 6.15969 4.24694C6.25691 4.38942 6.3088 4.55693 6.3088 4.72828C6.30901 4.84211 6.28627 4.95487 6.24188 5.06007C6.19749 5.16528 6.13233 5.26087 6.05012 5.34136C5.96792 5.42186 5.87029 5.48567 5.76285 5.52913C5.65541 5.5726 5.54026 5.59487 5.424 5.59466ZM12.2592 10.9669C12.2588 10.9986 12.2456 11.0289 12.2226 11.0511C12.1995 11.0734 12.1684 11.0859 12.136 11.0859H10.728C10.712 11.0859 10.6962 11.0828 10.6815 11.0769C10.6667 11.0709 10.6533 11.0621 10.642 11.051C10.6307 11.04 10.6218 11.0269 10.6157 11.0124C10.6096 10.998 10.6064 10.9825 10.6064 10.9669V8.47738C10.6064 7.8225 10.368 7.38069 9.76961 7.38069C9.58314 7.38171 9.40156 7.43917 9.24975 7.54519C9.09793 7.65121 8.98332 7.8006 8.9216 7.9729C8.87942 8.10024 8.861 8.23398 8.8672 8.36771V10.9669C8.8672 10.9988 8.85423 11.0295 8.83112 11.0522C8.80802 11.0748 8.77668 11.0875 8.74401 11.0875H7.336C7.3199 11.0875 7.30396 11.0844 7.2891 11.0783C7.27424 11.0722 7.26076 11.0633 7.24945 11.0521C7.23814 11.0408 7.22921 11.0275 7.2232 11.0129C7.21718 10.9983 7.21419 10.9826 7.2144 10.9669C7.2144 10.3057 7.232 7.09555 7.2144 6.34041C7.21419 6.32464 7.21718 6.30899 7.2232 6.29436C7.22921 6.27973 7.23814 6.26642 7.24945 6.2552C7.26076 6.24398 7.27424 6.23506 7.2891 6.22898C7.30396 6.2229 7.3199 6.21977 7.336 6.21977H8.74081C8.75704 6.21956 8.77316 6.22254 8.78821 6.22853C8.80325 6.23451 8.81692 6.24339 8.8284 6.25464C8.83988 6.26588 8.84895 6.27926 8.85507 6.29399C8.86118 6.30872 8.86422 6.32451 8.86401 6.34041V6.90912C9.01367 6.65472 9.23162 6.44532 9.49422 6.30364C9.75682 6.16195 10.054 6.0934 10.3536 6.1054C11.44 6.1054 12.256 6.80101 12.256 8.29877L12.2592 10.9669ZM8.8672 6.92478V6.90755L8.856 6.92478H8.8672ZM8.856 6.92478H8.8672V6.90755L8.856 6.92478ZM8.856 6.92478H8.8672V6.90755L8.856 6.92478ZM8.856 6.92478H8.8672V6.90755L8.856 6.92478ZM8.856 6.92478H8.8672V6.90755L8.856 6.92478ZM8.856 6.92478H8.8672V6.90755L8.856 6.92478ZM8.856 6.92478H8.8672V6.90755L8.856 6.92478ZM8.856 6.92478H8.8672V6.90755L8.856 6.92478ZM8.856 6.92478H8.8672V6.90755L8.856 6.92478ZM8.856 6.92478H8.8672V6.90755L8.856 6.92478ZM8.856 6.92478H8.8672V6.90755L8.856 6.92478ZM8.856 6.92478H8.8672V6.90755L8.856 6.92478ZM8.856 6.92478H8.8672V6.90755L8.856 6.92478ZM8.856 6.92478H8.8672V6.90755L8.856 6.92478ZM8.856 6.92478H8.8672V6.90755L8.856 6.92478Z" fill="#bae6fd"/>
</svg>
